STARTFONT 2.3
FONT -FontForge-Henny Penny-Book-R-Normal--12-120-72-72-P-68-ISO10646-1
SIZE 12 72 72  2
FONTBOUNDINGBOX 17 22 -2 -8
COMMENT "Generated by fontforge, http://fontforge.sourceforge.net"
COMMENT "Copyright (c) 2012, Brownfox (gayaneh.b@gmail.com), with Reserved Font Name "Henny Penny""
STARTPROPERTIES 40
FOUNDRY "FontForge"
FAMILY_NAME "Henny Penny"
WEIGHT_NAME "Book"
SLANT "R"
SETWIDTH_NAME "Normal"
ADD_STYLE_NAME ""
PIXEL_SIZE 12
POINT_SIZE 120
RESOLUTION_X 72
RESOLUTION_Y 72
SPACING "P"
AVERAGE_WIDTH 68
CHARSET_REGISTRY "ISO10646"
CHARSET_ENCODING "1"
FONTNAME_REGISTRY ""
CHARSET_COLLECTIONS "ISO10646-1"
BITS_PER_PIXEL 2
FONT_NAME "HennyPenny-Regular"
FACE_NAME "Henny Penny"
COPYRIGHT "Copyright (c) 2012, Brownfox (gayaneh.b@gmail.com), with Reserved Font Name "Henny Penny""
FONT_VERSION "1.001"
FONT_ASCENT 10
FONT_DESCENT 2
UNDERLINE_POSITION -1
UNDERLINE_THICKNESS 1
X_HEIGHT 7
CAP_HEIGHT 9
RAW_ASCENT 799
RAW_DESCENT 200
NORM_SPACE 3
RELATIVE_WEIGHT 40
RELATIVE_SETWIDTH 50
SUPERSCRIPT_X 0
SUPERSCRIPT_Y 4
SUPERSCRIPT_SIZE 7
SUBSCRIPT_X 0
SUBSCRIPT_Y 0
SUBSCRIPT_SIZE 7
AVG_LOWERCASE_WIDTH 61
AVG_UPPERCASE_WIDTH 85
ENDPROPERTIES
CHARS 233
STARTCHAR space
ENCODING 32
SWIDTH 270 0
DWIDTH 3 0
BBX 1 1 0 0
BITMAP
00
ENDCHAR
STARTCHAR exclam
ENCODING 33
SWIDTH 249 0
DWIDTH 3 0
BBX 3 11 0 0
BITMAP
70
74
74
34
30
20
20
20
10
70
70
ENDCHAR
STARTCHAR quotedbl
ENCODING 34
SWIDTH 292 0
DWIDTH 4 0
BBX 3 4 0 6
BITMAP
58
58
18
14
ENDCHAR
STARTCHAR numbersign
ENCODING 35
SWIDTH 1030 0
DWIDTH 12 0
BBX 11 14 1 -4
BITMAP
001000
001000
001100
004400
569954
012000
021140
5A9400
088000
154000
220000
150000
080000
040000
ENDCHAR
STARTCHAR dollar
ENCODING 36
SWIDTH 799 0
DWIDTH 10 0
BBX 7 12 1 -2
BITMAP
0010
07F8
0E58
0E44
0B80
02D0
01B0
1138
2128
7974
5BD0
0400
ENDCHAR
STARTCHAR percent
ENCODING 37
SWIDTH 789 0
DWIDTH 9 0
BBX 9 11 0 0
BITMAP
2E4100
718100
718800
2E1000
005000
008000
021F40
0431C0
1460C0
1071C0
402F40
ENDCHAR
STARTCHAR ampersand
ENCODING 38
SWIDTH 773 0
DWIDTH 9 0
BBX 9 12 0 -1
BITMAP
07C000
089000
148000
1A4000
0E0200
2D1B00
7B1200
B28200
B0D500
787840
1FAE40
000700
ENDCHAR
STARTCHAR quotesingle
ENCODING 39
SWIDTH 174 0
DWIDTH 2 0
BBX 2 4 0 5
BITMAP
50
50
10
10
ENDCHAR
STARTCHAR parenleft
ENCODING 40
SWIDTH 431 0
DWIDTH 5 0
BBX 5 17 0 -5
BITMAP
0400
1400
2000
2000
6000
9000
9000
9000
9000
A000
A000
7000
2400
1C00
0900
0240
0080
ENDCHAR
STARTCHAR parenright
ENCODING 41
SWIDTH 443 0
DWIDTH 5 0
BBX 6 12 0 -3
BITMAP
2400
0A00
0340
0280
01C0
01D0
01C0
01C0
0240
0600
1800
5000
ENDCHAR
STARTCHAR asterisk
ENCODING 42
SWIDTH 490 0
DWIDTH 6 0
BBX 5 5 0 6
BITMAP
0900
0580
6A40
0A40
14C0
ENDCHAR
STARTCHAR plus
ENCODING 43
SWIDTH 440 0
DWIDTH 5 0
BBX 5 7 0 1
BITMAP
0400
0400
0500
7F40
0500
0100
0100
ENDCHAR
STARTCHAR comma
ENCODING 44
SWIDTH 251 0
DWIDTH 3 0
BBX 3 4 0 -2
BITMAP
74
74
20
10
ENDCHAR
STARTCHAR hyphen
ENCODING 45
SWIDTH 436 0
DWIDTH 5 0
BBX 5 1 0 2
BITMAP
6F40
ENDCHAR
STARTCHAR period
ENCODING 46
SWIDTH 238 0
DWIDTH 3 0
BBX 2 2 0 0
BITMAP
70
70
ENDCHAR
STARTCHAR slash
ENCODING 47
SWIDTH 690 0
DWIDTH 8 0
BBX 8 11 0 0
BITMAP
0001
0005
0008
0020
0050
0140
0200
0800
1400
1000
4000
ENDCHAR
STARTCHAR zero
ENCODING 48
SWIDTH 723 0
DWIDTH 9 0
BBX 9 9 0 1
BITMAP
0BE400
281D00
700700
A00340
A00380
A00340
700740
2D1A00
0BF400
ENDCHAR
STARTCHAR one
ENCODING 49
SWIDTH 505 0
DWIDTH 6 0
BBX 6 11 0 -1
BITMAP
0400
0D00
2D00
9A00
0600
0700
0340
0340
0380
0BE0
3900
ENDCHAR
STARTCHAR two
ENCODING 50
SWIDTH 534 0
DWIDTH 6 0
BBX 6 11 0 -1
BITMAP
2F80
52D0
40D0
40D0
0180
0200
0400
1000
7910
0BE0
01C0
ENDCHAR
STARTCHAR three
ENCODING 51
SWIDTH 511 0
DWIDTH 6 0
BBX 6 11 0 -1
BITMAP
1000
7F80
5040
4100
0500
0280
00A0
4070
8070
50A0
1F80
ENDCHAR
STARTCHAR four
ENCODING 52
SWIDTH 712 0
DWIDTH 9 0
BBX 9 12 0 -2
BITMAP
005000
00C000
01C000
04D000
109000
90A000
19B000
01BA00
003900
003800
00BD00
000140
ENDCHAR
STARTCHAR five
ENCODING 53
SWIDTH 757 0
DWIDTH 9 0
BBX 9 11 0 -1
BITMAP
006480
006F80
010700
020000
01B400
402C00
401D00
401D00
802C00
607400
1FD000
ENDCHAR
STARTCHAR six
ENCODING 54
SWIDTH 598 0
DWIDTH 7 0
BBX 7 9 0 0
BITMAP
0BE0
2418
7BE0
B828
B01C
A00C
701C
3824
0BD0
ENDCHAR
STARTCHAR seven
ENCODING 55
SWIDTH 507 0
DWIDTH 6 0
BBX 6 10 0 0
BITMAP
0010
FFE0
8180
4040
0100
0200
0500
0D00
1C00
2C00
ENDCHAR
STARTCHAR eight
ENCODING 56
SWIDTH 476 0
DWIDTH 6 0
BBX 6 10 0 0
BITMAP
2F40
7480
7440
7D00
1F40
66D0
80A0
8060
9090
2F40
ENDCHAR
STARTCHAR nine
ENCODING 57
SWIDTH 601 0
DWIDTH 7 0
BBX 7 9 0 0
BITMAP
1F90
70B4
9038
A02C
747C
2FBC
0038
00B0
6F80
ENDCHAR
STARTCHAR colon
ENCODING 58
SWIDTH 246 0
DWIDTH 3 0
BBX 3 6 0 0
BITMAP
70
70
00
00
34
34
ENDCHAR
STARTCHAR semicolon
ENCODING 59
SWIDTH 266 0
DWIDTH 3 0
BBX 3 7 0 -2
BITMAP
34
34
00
00
74
24
10
ENDCHAR
STARTCHAR less
ENCODING 60
SWIDTH 522 0
DWIDTH 6 0
BBX 5 5 1 1
BITMAP
0500
1400
8000
2400
0640
ENDCHAR
STARTCHAR equal
ENCODING 61
SWIDTH 655 0
DWIDTH 8 0
BBX 8 3 0 2
BITMAP
05BD
1500
7FA4
ENDCHAR
STARTCHAR greater
ENCODING 62
SWIDTH 533 0
DWIDTH 6 0
BBX 5 6 1 1
BITMAP
4000
5000
0500
0140
0500
2000
ENDCHAR
STARTCHAR question
ENCODING 63
SWIDTH 564 0
DWIDTH 7 0
BBX 7 11 0 -1
BITMAP
1F90
60B0
A074
B474
74E0
0240
0400
1000
1800
0000
1C00
ENDCHAR
STARTCHAR at
ENCODING 64
SWIDTH 898 0
DWIDTH 11 0
BBX 11 12 0 -4
BITMAP
01BE40
0A4190
140020
21FA10
574E04
4A0A04
4A0A10
474A20
12F6D0
202C00
191C00
06F400
ENDCHAR
STARTCHAR A
ENCODING 65
SWIDTH 784 0
DWIDTH 9 0
BBX 10 10 0 -1
BITMAP
0FD000
01E000
027000
023400
052800
0FFC00
186E00
F80B00
180780
002FE0
ENDCHAR
STARTCHAR B
ENCODING 66
SWIDTH 685 0
DWIDTH 8 0
BBX 8 12 0 -2
BITMAP
5AF4
1C2C
0C1C
0C28
0D50
0FF8
0D1E
0D0B
0D0B
0E1E
1FF8
5000
ENDCHAR
STARTCHAR C
ENCODING 67
SWIDTH 742 0
DWIDTH 9 0
BBX 9 12 0 -1
BITMAP
000100
000100
07FF00
2D0700
740140
B00000
F00000
F00040
B00040
780040
2E0600
06F800
ENDCHAR
STARTCHAR D
ENCODING 68
SWIDTH 726 0
DWIDTH 9 0
BBX 9 10 0 -2
BITMAP
6AF800
2C1F00
180740
1C0380
1C0740
1C0740
1D1E00
1FE400
390000
900000
ENDCHAR
STARTCHAR E
ENCODING 69
SWIDTH 557 0
DWIDTH 7 0
BBX 7 12 0 -2
BITMAP
55B0
7810
2800
2800
2840
1F40
1C40
1C00
0C04
0D08
BFF8
0050
ENDCHAR
STARTCHAR F
ENCODING 70
SWIDTH 533 0
DWIDTH 6 0
BBX 7 11 0 0
BITMAP
01A8
7D14
2C14
1D00
1D40
0F80
0D40
0D40
0900
0D00
BB40
ENDCHAR
STARTCHAR G
ENCODING 71
SWIDTH 750 0
DWIDTH 9 0
BBX 9 9 0 0
BITMAP
000040
0BE040
2D0B00
B40200
B00640
E0BF00
B00B00
780B00
1BE500
ENDCHAR
STARTCHAR H
ENCODING 72
SWIDTH 743 0
DWIDTH 9 0
BBX 9 14 0 -3
BITMAP
500000
2F8180
1C3F40
1C0A00
1C0A00
1C0600
1C0A00
1FFE00
1C0600
1C0600
1C0600
2C3F80
BE0000
400000
ENDCHAR
STARTCHAR I
ENCODING 73
SWIDTH 438 0
DWIDTH 5 0
BBX 7 12 -1 -2
BITMAP
3ABC
0B80
0740
0700
0700
0700
0600
0600
0600
0600
1FC0
6400
ENDCHAR
STARTCHAR J
ENCODING 74
SWIDTH 628 0
DWIDTH 8 0
BBX 8 14 0 -3
BITMAP
001B
07F8
00B4
0070
0070
0070
0070
0070
0060
0060
0090
B8C0
8640
7D00
ENDCHAR
STARTCHAR K
ENCODING 75
SWIDTH 866 0
DWIDTH 10 0
BBX 11 12 0 -1
BITMAP
051000
FD2F80
2C1400
2C5000
1D8000
1FC000
1CE014
1C7404
1C2E18
1C06E0
3E0000
010000
ENDCHAR
STARTCHAR L
ENCODING 76
SWIDTH 660 0
DWIDTH 8 0
BBX 8 10 0 0
BITMAP
5000
7FD0
0F00
0E00
0E00
0E04
0D04
0E09
7FFE
1000
ENDCHAR
STARTCHAR M
ENCODING 77
SWIDTH 1089 0
DWIDTH 13 0
BBX 14 10 0 -1
BITMAP
00000F40
0A402800
06D03800
02745800
012C5C00
011E0D00
01090A00
00000B40
E0000FD0
B4001400
ENDCHAR
STARTCHAR N
ENCODING 78
SWIDTH 799 0
DWIDTH 10 0
BBX 10 12 0 -4
BITMAP
FD0FD0
1F4240
17D100
15F500
14BE00
142F00
140B00
140200
140000
240000
BD0000
010000
ENDCHAR
STARTCHAR O
ENCODING 79
SWIDTH 747 0
DWIDTH 9 0
BBX 9 9 0 0
BITMAP
0BF400
381E00
B00740
E00380
E003C0
A00380
B00340
3D1A00
0BF800
ENDCHAR
STARTCHAR P
ENCODING 80
SWIDTH 623 0
DWIDTH 7 0
BBX 8 10 0 -1
BITMAP
FFF8
1E1D
0A0D
0A1D
0BF4
0A00
0E00
0E00
0E00
6F90
ENDCHAR
STARTCHAR Q
ENCODING 81
SWIDTH 804 0
DWIDTH 10 0
BBX 14 14 0 -5
BITMAP
06F90000
291B4000
7003C000
A001D000
D000D000
E000D000
B02DD000
74478000
2D478000
07FAC000
0001D000
0000F010
00007850
00002F80
ENDCHAR
STARTCHAR R
ENCODING 82
SWIDTH 869 0
DWIDTH 10 0
BBX 11 8 0 0
BITMAP
FFF400
2E2C00
0D1C00
0D6800
0FF000
097404
0D2D04
BF47E4
ENDCHAR
STARTCHAR S
ENCODING 83
SWIDTH 517 0
DWIDTH 6 0
BBX 7 11 0 -1
BITMAP
0B90
1C60
1810
0D00
0700
02C0
40E0
8070
9074
A4B0
4B90
ENDCHAR
STARTCHAR T
ENCODING 84
SWIDTH 659 0
DWIDTH 8 0
BBX 9 12 0 -1
BITMAP
BFFF40
909240
409100
10D000
00D000
00D000
00D000
00D000
00D000
01E000
03FD00
090000
ENDCHAR
STARTCHAR U
ENCODING 85
SWIDTH 690 0
DWIDTH 8 0
BBX 9 9 0 1
BITMAP
16C000
FE0000
2D7F80
2D0900
1C0500
1D0100
1D0500
0B0800
02F400
ENDCHAR
STARTCHAR V
ENCODING 86
SWIDTH 798 0
DWIDTH 10 0
BBX 11 10 0 0
BITMAP
018000
BF4004
1F0074
074BD0
02C180
01D100
00B100
007C00
003800
001400
ENDCHAR
STARTCHAR W
ENCODING 87
SWIDTH 1120 0
DWIDTH 13 0
BBX 15 11 0 -1
BITMAP
00000500
000002FC
010000C0
1C000140
6C040100
0D1D0100
0A170400
07838400
0382E000
0200E000
00008000
ENDCHAR
STARTCHAR X
ENCODING 88
SWIDTH 868 0
DWIDTH 10 0
BBX 10 10 0 0
BITMAP
015000
FFD100
0BC0E0
01D140
00B500
003C00
009D00
060700
BE0280
065FD0
ENDCHAR
STARTCHAR Y
ENCODING 89
SWIDTH 796 0
DWIDTH 10 0
BBX 11 13 0 -2
BITMAP
050140
BE01F8
1D0040
074100
02E800
00B400
007000
007000
007000
007000
00B400
03F800
000400
ENDCHAR
STARTCHAR Z
ENCODING 90
SWIDTH 627 0
DWIDTH 8 0
BBX 8 11 0 -2
BITMAP
5010
7FE0
52C0
4280
0340
0700
0A04
0D05
1C09
2EBE
2940
ENDCHAR
STARTCHAR bracketleft
ENCODING 91
SWIDTH 344 0
DWIDTH 4 0
BBX 4 12 0 -2
BITMAP
39
30
70
60
60
A0
A0
A0
A0
E0
E0
BE
ENDCHAR
STARTCHAR backslash
ENCODING 92
SWIDTH 347 0
DWIDTH 4 0
BBX 4 13 0 -2
BITMAP
40
40
50
10
10
10
04
08
04
05
01
01
01
ENDCHAR
STARTCHAR bracketright
ENCODING 93
SWIDTH 334 0
DWIDTH 4 0
BBX 4 12 0 -3
BITMAP
04
7D
0D
0D
0D
0E
0E
0E
0A
0F
19
50
ENDCHAR
STARTCHAR asciicircum
ENCODING 94
SWIDTH 658 0
DWIDTH 8 0
BBX 7 3 0 6
BITMAP
0240
1EE0
646C
ENDCHAR
STARTCHAR underscore
ENCODING 95
SWIDTH 678 0
DWIDTH 8 0
BBX 7 2 1 -4
BITMAP
5AF4
5000
ENDCHAR
STARTCHAR grave
ENCODING 96
SWIDTH 278 0
DWIDTH 3 0
BBX 3 2 0 9
BITMAP
60
14
ENDCHAR
STARTCHAR a
ENCODING 97
SWIDTH 527 0
DWIDTH 6 0
BBX 7 9 0 -1
BITMAP
2E00
6240
3580
01C0
2FC0
A1D0
91D0
7DA4
0074
ENDCHAR
STARTCHAR b
ENCODING 98
SWIDTH 582 0
DWIDTH 7 0
BBX 8 14 -1 0
BITMAP
1800
FC00
1C00
0C00
0C00
0C00
0C00
0C00
0DB8
0E1E
0D0A
0A0E
1FF8
3500
ENDCHAR
STARTCHAR c
ENCODING 99
SWIDTH 437 0
DWIDTH 5 0
BBX 5 7 0 1
BITMAP
1F40
6380
9000
9040
9040
7480
2F40
ENDCHAR
STARTCHAR d
ENCODING 100
SWIDTH 523 0
DWIDTH 6 0
BBX 7 11 0 1
BITMAP
0090
03D0
00D0
00D0
00D0
0090
2FD0
B090
A090
B0D0
2FF4
ENDCHAR
STARTCHAR e
ENCODING 101
SWIDTH 434 0
DWIDTH 5 0
BBX 5 7 0 0
BITMAP
1F40
75C0
A1C0
BE40
A040
7480
2F40
ENDCHAR
STARTCHAR f
ENCODING 102
SWIDTH 299 0
DWIDTH 4 0
BBX 7 16 -1 -2
BITMAP
01F4
0218
0568
09B4
0900
7F80
0D00
0900
0900
0900
0900
0A00
0A00
0A00
1FC0
2400
ENDCHAR
STARTCHAR g
ENCODING 103
SWIDTH 567 0
DWIDTH 7 0
BBX 7 12 0 -5
BITMAP
0078
2F9C
74D0
74D0
2F80
2000
3400
1F90
6074
D024
E070
7F80
ENDCHAR
STARTCHAR h
ENCODING 104
SWIDTH 566 0
DWIDTH 7 0
BBX 8 13 -1 0
BITMAP
0600
3E00
0600
0500
0500
0900
0900
0900
09F4
0E28
0D28
1C28
7F7E
ENDCHAR
STARTCHAR i
ENCODING 105
SWIDTH 301 0
DWIDTH 4 0
BBX 4 9 0 1
BITMAP
24
00
B8
38
24
24
24
34
BD
ENDCHAR
STARTCHAR j
ENCODING 106
SWIDTH 367 0
DWIDTH 4 0
BBX 6 13 -2 -6
BITMAP
00C0
0000
07E0
00F0
0070
0070
0030
0030
0030
2C30
6460
6090
2F40
ENDCHAR
STARTCHAR k
ENCODING 107
SWIDTH 567 0
DWIDTH 7 0
BBX 8 13 -1 -1
BITMAP
1900
BD00
0D00
0900
0900
0940
097C
0990
0B81
0AE1
0A6D
0A00
2AD0
ENDCHAR
STARTCHAR l
ENCODING 108
SWIDTH 354 0
DWIDTH 4 0
BBX 5 11 -1 0
BITMAP
0100
1E00
AE00
0A00
0A00
0600
0600
0700
0700
0740
1FC0
ENDCHAR
STARTCHAR m
ENCODING 109
SWIDTH 708 0
DWIDTH 9 0
BBX 8 6 0 1
BITMAP
1000
7BAD
28CA
2ADA
7D0A
0001
ENDCHAR
STARTCHAR n
ENCODING 110
SWIDTH 584 0
DWIDTH 7 0
BBX 7 8 0 -1
BITMAP
1000
75E0
2934
1824
1824
0C34
3EF4
0014
ENDCHAR
STARTCHAR o
ENCODING 111
SWIDTH 503 0
DWIDTH 6 0
BBX 6 6 0 1
BITMAP
1F80
74D0
A0A0
B060
7490
1F80
ENDCHAR
STARTCHAR p
ENCODING 112
SWIDTH 509 0
DWIDTH 6 0
BBX 6 12 0 -5
BITMAP
1400
BBD0
28B0
2470
28A0
2F80
2800
2800
2800
2800
BE00
0100
ENDCHAR
STARTCHAR q
ENCODING 113
SWIDTH 505 0
DWIDTH 6 0
BBX 6 11 0 -5
BITMAP
6EC0
A1C0
A1C0
7EC0
01C0
01C0
01C0
01C0
01C0
0BD0
0060
ENDCHAR
STARTCHAR r
ENCODING 114
SWIDTH 414 0
DWIDTH 5 0
BBX 6 8 0 0
BITMAP
01D0
B560
28D0
2800
2800
1C00
2C00
7F00
ENDCHAR
STARTCHAR s
ENCODING 115
SWIDTH 482 0
DWIDTH 6 0
BBX 6 9 0 -1
BITMAP
0B80
1880
1840
0600
0280
1090
60A0
54E0
0B80
ENDCHAR
STARTCHAR t
ENCODING 116
SWIDTH 434 0
DWIDTH 5 0
BBX 5 9 0 0
BITMAP
0500
0900
BF40
2C00
3400
3400
34C0
3880
1F40
ENDCHAR
STARTCHAR u
ENCODING 117
SWIDTH 744 0
DWIDTH 9 0
BBX 9 6 0 0
BITMAP
18BC00
B80C00
1C0C00
0D1D00
0E2BC0
07D000
ENDCHAR
STARTCHAR v
ENCODING 118
SWIDTH 600 0
DWIDTH 7 0
BBX 7 7 0 0
BITMAP
1800
6C7C
0D20
0A10
0350
02C0
0080
ENDCHAR
STARTCHAR w
ENCODING 119
SWIDTH 745 0
DWIDTH 9 0
BBX 9 7 0 0
BITMAP
180280
F85200
2CA100
1D7500
0E2C00
0A0800
050000
ENDCHAR
STARTCHAR x
ENCODING 120
SWIDTH 548 0
DWIDTH 7 0
BBX 7 8 0 0
BITMAP
0600
FD00
1EB8
0B80
0340
0680
65F4
0200
ENDCHAR
STARTCHAR y
ENCODING 121
SWIDTH 659 0
DWIDTH 8 0
BBX 8 12 0 -5
BITMAP
1A00
B8BE
342D
281C
281C
1D2C
0798
0014
0024
1E20
1090
1F40
ENDCHAR
STARTCHAR z
ENCODING 122
SWIDTH 460 0
DWIDTH 6 0
BBX 6 7 0 -1
BITMAP
BF80
8200
4600
0C00
2810
7FD0
4000
ENDCHAR
STARTCHAR braceleft
ENCODING 123
SWIDTH 460 0
DWIDTH 6 0
BBX 6 15 0 -4
BITMAP
07C0
0900
0D00
0900
0A00
0A00
1D00
6000
0800
0900
0A00
0A00
0A00
0A10
07C0
ENDCHAR
STARTCHAR bar
ENCODING 124
SWIDTH 368 0
DWIDTH 4 0
BBX 2 12 1 -2
BITMAP
10
50
10
10
10
10
10
10
10
10
10
10
ENDCHAR
STARTCHAR braceright
ENCODING 125
SWIDTH 476 0
DWIDTH 6 0
BBX 6 13 0 -3
BITMAP
7D00
4B00
0B00
0700
0300
0090
0180
01C0
00D0
0090
0090
01C0
0A40
ENDCHAR
STARTCHAR asciitilde
ENCODING 126
SWIDTH 733 0
DWIDTH 9 0
BBX 8 2 0 2
BITMAP
1F42
51BD
ENDCHAR
STARTCHAR nonbreakingspace
ENCODING 160
SWIDTH 270 0
DWIDTH 3 0
BBX 1 1 0 0
BITMAP
00
ENDCHAR
STARTCHAR exclamdown
ENCODING 161
SWIDTH 247 0
DWIDTH 3 0
BBX 3 12 0 -1
BITMAP
70
70
10
20
20
30
30
34
34
74
74
30
ENDCHAR
STARTCHAR cent
ENCODING 162
SWIDTH 799 0
DWIDTH 10 0
BBX 6 9 2 -2
BITMAP
1F80
7490
94D0
D400
D100
B550
2F80
0100
0040
ENDCHAR
STARTCHAR sterling
ENCODING 163
SWIDTH 799 0
DWIDTH 10 0
BBX 7 11 2 -1
BITMAP
1B80
34D0
71D0
72C0
7400
7D00
2D00
0D00
0900
BE04
FAE0
ENDCHAR
STARTCHAR currency
ENCODING 164
SWIDTH 732 0
DWIDTH 9 0
BBX 7 8 1 0
BITMAP
0080
AFC0
9060
8020
9050
7F90
5014
4000
ENDCHAR
STARTCHAR yen
ENCODING 165
SWIDTH 799 0
DWIDTH 10 0
BBX 9 13 0 -2
BITMAP
004000
7F4180
1F4F40
038500
02D400
00F400
00B000
07FF80
01BE00
007000
00B000
01FD00
064000
ENDCHAR
STARTCHAR brokenbar
ENCODING 166
SWIDTH 341 0
DWIDTH 4 0
BBX 2 14 1 -3
BITMAP
10
10
50
50
10
00
00
10
10
10
10
10
50
50
ENDCHAR
STARTCHAR section
ENCODING 167
SWIDTH 546 0
DWIDTH 7 0
BBX 6 14 0 -4
BITMAP
0B90
28A0
24A0
2D00
1F40
62D0
6070
3820
1F50
02C0
0060
0020
0D10
0B80
ENDCHAR
STARTCHAR dieresis
ENCODING 168
SWIDTH 393 0
DWIDTH 5 0
BBX 3 1 1 8
BITMAP
98
ENDCHAR
STARTCHAR copyright
ENCODING 169
SWIDTH 1023 0
DWIDTH 12 0
BBX 12 11 0 -2
BITMAP
01BF80
0A40B4
140408
20BC05
528802
424102
428105
10B809
200018
0E01A0
02FE40
ENDCHAR
STARTCHAR ordfeminine
ENCODING 170
SWIDTH 558 0
DWIDTH 7 0
BBX 6 6 0 4
BITMAP
2E00
6340
7240
2F40
7290
3DE0
ENDCHAR
STARTCHAR guillemotleft
ENCODING 171
SWIDTH 608 0
DWIDTH 7 0
BBX 7 10 0 -3
BITMAP
0004
0054
0220
0D60
78E0
2D74
0A28
0248
0084
0040
ENDCHAR
STARTCHAR logicalnot
ENCODING 172
SWIDTH 616 0
DWIDTH 7 0
BBX 7 3 0 3
BITMAP
7FA8
0008
0004
ENDCHAR
STARTCHAR uni00AD
ENCODING 173
SWIDTH 436 0
DWIDTH 5 0
BBX 5 1 0 2
BITMAP
6F40
ENDCHAR
STARTCHAR registered
ENCODING 174
SWIDTH 1048 0
DWIDTH 13 0
BBX 12 11 0 -3
BITMAP
01BF90
0A4064
26FE05
20D341
509701
50BD01
50DD11
23FBD1
240009
0A4064
01BF90
ENDCHAR
STARTCHAR macron
ENCODING 175
SWIDTH 382 0
DWIDTH 5 0
BBX 4 1 0 9
BITMAP
6F
ENDCHAR
STARTCHAR degree
ENCODING 176
SWIDTH 346 0
DWIDTH 4 0
BBX 4 3 0 9
BITMAP
2D
55
3D
ENDCHAR
STARTCHAR plusminus
ENCODING 177
SWIDTH 580 0
DWIDTH 7 0
BBX 7 5 0 2
BITMAP
0100
0200
3FA4
0100
7B90
ENDCHAR
STARTCHAR twosuperior
ENCODING 178
SWIDTH 365 0
DWIDTH 4 0
BBX 4 7 0 4
BITMAP
1D
17
07
09
60
29
08
ENDCHAR
STARTCHAR threesuperior
ENCODING 179
SWIDTH 371 0
DWIDTH 4 0
BBX 4 6 0 4
BITMAP
78
04
1A
43
47
2D
ENDCHAR
STARTCHAR acute
ENCODING 180
SWIDTH 234 0
DWIDTH 3 0
BBX 2 2 0 9
BITMAP
20
50
ENDCHAR
STARTCHAR mu
ENCODING 181
SWIDTH 634 0
DWIDTH 8 0
BBX 8 10 0 -4
BITMAP
6000
6090
60A0
7061
74B1
6B7D
6000
7000
7000
7400
ENDCHAR
STARTCHAR paragraph
ENCODING 182
SWIDTH 707 0
DWIDTH 8 0
BBX 9 14 0 -4
BITMAP
000500
2BF800
BF1400
FE1400
BE1400
2E1400
062400
062400
062800
032800
032D00
072F40
0B0000
390000
ENDCHAR
STARTCHAR periodcentered
ENCODING 183
SWIDTH 238 0
DWIDTH 3 0
BBX 2 2 0 4
BITMAP
70
70
ENDCHAR
STARTCHAR cedilla
ENCODING 184
SWIDTH 332 0
DWIDTH 4 0
BBX 4 4 0 -3
BITMAP
10
18
09
78
ENDCHAR
STARTCHAR onesuperior
ENCODING 185
SWIDTH 336 0
DWIDTH 4 0
BBX 4 5 0 6
BITMAP
08
1C
0C
6C
6A
ENDCHAR
STARTCHAR ordmasculine
ENCODING 186
SWIDTH 503 0
DWIDTH 6 0
BBX 6 5 0 4
BITMAP
2F80
51D0
8060
6450
2F80
ENDCHAR
STARTCHAR guillemotright
ENCODING 187
SWIDTH 778 0
DWIDTH 9 0
BBX 8 10 1 -3
BITMAP
0200
8180
A060
2E5D
0A78
18A0
2180
4200
4200
0100
ENDCHAR
STARTCHAR onequarter
ENCODING 188
SWIDTH 876 0
DWIDTH 11 0
BBX 11 11 0 0
BITMAP
080040
1C0100
0C0500
6C0800
6A2100
005300
014700
020250
042FE0
140280
1007F4
ENDCHAR
STARTCHAR onehalf
ENCODING 189
SWIDTH 762 0
DWIDTH 9 0
BBX 9 12 0 -1
BITMAP
080040
1C0100
0C0500
6C0800
6A2000
005B00
015280
020280
040200
141400
101A40
000100
ENDCHAR
STARTCHAR threequarters
ENCODING 190
SWIDTH 922 0
DWIDTH 11 0
BBX 11 11 0 0
BITMAP
000010
780080
040200
1A0500
430840
472180
2D5180
014090
020FF0
0400D0
1402F8
ENDCHAR
STARTCHAR questiondown
ENCODING 191
SWIDTH 571 0
DWIDTH 7 0
BBX 7 11 0 -2
BITMAP
0340
0340
0000
0100
0100
0500
28F0
74B8
B428
7824
2FD0
ENDCHAR
STARTCHAR Agrave
ENCODING 192
SWIDTH 784 0
DWIDTH 9 0
BBX 10 13 0 -1
BITMAP
080000
020000
000000
0FD000
01E000
027000
023400
052800
0FFC00
186E00
F80B00
180780
002FE0
ENDCHAR
STARTCHAR Aacute
ENCODING 193
SWIDTH 784 0
DWIDTH 9 0
BBX 10 13 0 -1
BITMAP
005000
004000
000000
0FD000
01E000
027000
023400
052800
0FFC00
186E00
F80B00
180780
002FE0
ENDCHAR
STARTCHAR Acircumflex
ENCODING 194
SWIDTH 784 0
DWIDTH 9 0
BBX 10 13 0 -1
BITMAP
009000
052800
000000
0FD000
01E000
027000
023400
052800
0FFC00
186E00
F80B00
180780
002FE0
ENDCHAR
STARTCHAR Atilde
ENCODING 195
SWIDTH 784 0
DWIDTH 9 0
BBX 10 13 0 -1
BITMAP
074000
05B000
000000
0FD000
01E000
027000
023400
052800
0FFC00
186E00
F80B00
180780
002FE0
ENDCHAR
STARTCHAR Adieresis
ENCODING 196
SWIDTH 784 0
DWIDTH 9 0
BBX 10 13 0 -1
BITMAP
034000
037000
000000
0FD000
01E000
027000
023400
052800
0FFC00
186E00
F80B00
180780
002FE0
ENDCHAR
STARTCHAR Aring
ENCODING 197
SWIDTH 784 0
DWIDTH 9 0
BBX 10 14 0 -1
BITMAP
01D000
022000
02D000
000000
0FD000
01E000
027000
023400
052800
0FFC00
186E00
F80B00
180780
002FE0
ENDCHAR
STARTCHAR AE
ENCODING 198
SWIDTH 1172 0
DWIDTH 14 0
BBX 14 13 0 -2
BITMAP
00000100
00016E00
007F9500
000B4000
00068000
00168900
0012FD00
0052C110
00BFD020
0181E1B0
0201F500
19024000
FF440000
ENDCHAR
STARTCHAR Ccedilla
ENCODING 199
SWIDTH 742 0
DWIDTH 9 0
BBX 9 16 0 -5
BITMAP
000100
000100
07FF00
2D0700
740140
B00000
F00000
F00040
B00040
780040
2E0600
06F800
004000
006000
002400
01F000
ENDCHAR
STARTCHAR Egrave
ENCODING 200
SWIDTH 557 0
DWIDTH 7 0
BBX 7 14 0 -2
BITMAP
2400
0800
55B0
7810
2800
2800
2840
1F40
1C40
1C00
0C04
0D08
BFF8
0050
ENDCHAR
STARTCHAR Eacute
ENCODING 201
SWIDTH 557 0
DWIDTH 7 0
BBX 7 14 0 -2
BITMAP
0180
0200
55B0
7810
2800
2800
2840
1F40
1C40
1C00
0C04
0D08
BFF8
0050
ENDCHAR
STARTCHAR Ecircumflex
ENCODING 202
SWIDTH 557 0
DWIDTH 7 0
BBX 7 15 0 -2
BITMAP
0740
15A0
0000
55B0
7810
2800
2800
2840
1F40
1C40
1C00
0C04
0D08
BFF8
0050
ENDCHAR
STARTCHAR Edieresis
ENCODING 203
SWIDTH 557 0
DWIDTH 7 0
BBX 7 14 0 -2
BITMAP
1C00
1D80
55B0
7810
2800
2800
2840
1F40
1C40
1C00
0C04
0D08
BFF8
0050
ENDCHAR
STARTCHAR Igrave
ENCODING 204
SWIDTH 438 0
DWIDTH 5 0
BBX 7 15 -1 -2
BITMAP
0900
0200
0000
3ABC
0B80
0740
0700
0700
0700
0600
0600
0600
0600
1FC0
6400
ENDCHAR
STARTCHAR Iacute
ENCODING 205
SWIDTH 438 0
DWIDTH 5 0
BBX 7 15 -1 -2
BITMAP
0050
0080
0000
3ABC
0B80
0740
0700
0700
0700
0600
0600
0600
0600
1FC0
6400
ENDCHAR
STARTCHAR Icircumflex
ENCODING 206
SWIDTH 438 0
DWIDTH 5 0
BBX 7 15 -1 -2
BITMAP
0290
0574
0000
3ABC
0B80
0740
0700
0700
0700
0600
0600
0600
0600
1FC0
6400
ENDCHAR
STARTCHAR Idieresis
ENCODING 207
SWIDTH 438 0
DWIDTH 5 0
BBX 7 15 -1 -2
BITMAP
0900
0990
0000
3ABC
0B80
0740
0700
0700
0700
0600
0600
0600
0600
1FC0
6400
ENDCHAR
STARTCHAR Eth
ENCODING 208
SWIDTH 730 0
DWIDTH 9 0
BBX 9 9 0 -2
BITMAP
6BF900
1D1F40
0D0B80
0D07C0
7F4780
1D0B40
1D1E00
2FE400
640000
ENDCHAR
STARTCHAR Ntilde
ENCODING 209
SWIDTH 799 0
DWIDTH 10 0
BBX 10 16 0 -4
BITMAP
00A400
006E00
000000
000000
FD0FD0
1F4240
17D100
15F500
14BE00
142F00
140B00
140200
140000
240000
BD0000
010000
ENDCHAR
STARTCHAR Ograve
ENCODING 210
SWIDTH 747 0
DWIDTH 9 0
BBX 9 12 0 0
BITMAP
090000
020000
000000
0BF400
381E00
B00740
E00380
E003C0
A00380
B00340
3D1A00
0BF800
ENDCHAR
STARTCHAR Oacute
ENCODING 211
SWIDTH 747 0
DWIDTH 9 0
BBX 9 12 0 0
BITMAP
005000
004000
000000
0BF400
381E00
B00740
E00380
E003C0
A00380
B00340
3D1A00
0BF800
ENDCHAR
STARTCHAR Ocircumflex
ENCODING 212
SWIDTH 747 0
DWIDTH 9 0
BBX 9 12 0 0
BITMAP
019000
056400
000000
0BF400
381E00
B00740
E00380
E003C0
A00380
B00340
3D1A00
0BF800
ENDCHAR
STARTCHAR Otilde
ENCODING 213
SWIDTH 747 0
DWIDTH 9 0
BBX 9 12 0 0
BITMAP
038000
04B400
000000
0BF400
381E00
B00740
E00380
E003C0
A00380
B00340
3D1A00
0BF800
ENDCHAR
STARTCHAR Odieresis
ENCODING 214
SWIDTH 747 0
DWIDTH 9 0
BBX 9 12 0 0
BITMAP
070000
077000
000000
0BF400
381E00
B00740
E00380
E003C0
A00380
B00340
3D1A00
0BF800
ENDCHAR
STARTCHAR multiply
ENCODING 215
SWIDTH 541 0
DWIDTH 7 0
BBX 6 7 0 0
BITMAP
0020
1080
0900
0600
0440
2000
5000
ENDCHAR
STARTCHAR Oslash
ENCODING 216
SWIDTH 747 0
DWIDTH 9 0
BBX 9 11 0 -1
BITMAP
000140
0BE500
381E00
B01B40
E02380
E083C0
A20380
B80340
3D1A00
2BF800
500000
ENDCHAR
STARTCHAR Ugrave
ENCODING 217
SWIDTH 690 0
DWIDTH 8 0
BBX 9 12 0 1
BITMAP
024000
008000
000000
16C000
FE0000
2D7F80
2D0900
1C0500
1D0100
1D0500
0B0800
02F400
ENDCHAR
STARTCHAR Uacute
ENCODING 218
SWIDTH 690 0
DWIDTH 8 0
BBX 9 10 0 1
BITMAP
000500
16C800
FE0000
2D7F80
2D0900
1C0500
1D0100
1D0500
0B0800
02F400
ENDCHAR
STARTCHAR Ucircumflex
ENCODING 219
SWIDTH 690 0
DWIDTH 8 0
BBX 9 11 0 1
BITMAP
00A400
015D00
16C000
FE0000
2D7F80
2D0900
1C0500
1D0100
1D0500
0B0800
02F400
ENDCHAR
STARTCHAR Udieresis
ENCODING 220
SWIDTH 690 0
DWIDTH 8 0
BBX 9 11 0 1
BITMAP
028000
029800
16C000
FE0000
2D7F80
2D0900
1C0500
1D0100
1D0500
0B0800
02F400
ENDCHAR
STARTCHAR Yacute
ENCODING 221
SWIDTH 796 0
DWIDTH 10 0
BBX 11 14 0 -2
BITMAP
000500
050940
BE01F8
1D0040
074100
02E800
00B400
007000
007000
007000
007000
00B400
03F800
000400
ENDCHAR
STARTCHAR Thorn
ENCODING 222
SWIDTH 479 0
DWIDTH 6 0
BBX 6 12 0 -1
BITMAP
BE00
2800
2F90
24B0
24B0
2FD0
2400
2400
2400
2400
3800
BD00
ENDCHAR
STARTCHAR germandbls
ENCODING 223
SWIDTH 591 0
DWIDTH 7 0
BBX 7 13 0 -1
BITMAP
7D00
8700
8300
8200
8000
9F90
91F4
6038
702C
341C
3A58
3AE0
4000
ENDCHAR
STARTCHAR agrave
ENCODING 224
SWIDTH 527 0
DWIDTH 6 0
BBX 7 11 0 -1
BITMAP
6000
1400
2E00
6240
3580
01C0
2FC0
A1D0
91D0
7DA4
0074
ENDCHAR
STARTCHAR aacute
ENCODING 225
SWIDTH 527 0
DWIDTH 6 0
BBX 7 12 0 -1
BITMAP
0200
0500
0000
2E00
6240
3580
01C0
2FC0
A1D0
91D0
7DA4
0074
ENDCHAR
STARTCHAR acircumflex
ENCODING 226
SWIDTH 527 0
DWIDTH 6 0
BBX 7 12 0 -1
BITMAP
0A40
15C0
0000
2E00
6240
3580
01C0
2FC0
A1D0
91D0
7DA4
0074
ENDCHAR
STARTCHAR atilde
ENCODING 227
SWIDTH 527 0
DWIDTH 6 0
BBX 7 11 0 -1
BITMAP
1D00
17C0
2E00
6240
3580
01C0
2FC0
A1D0
91D0
7DA4
0074
ENDCHAR
STARTCHAR adieresis
ENCODING 228
SWIDTH 527 0
DWIDTH 6 0
BBX 7 11 0 -1
BITMAP
2600
0000
2E00
6240
3580
01C0
2FC0
A1D0
91D0
7DA4
0074
ENDCHAR
STARTCHAR aring
ENCODING 229
SWIDTH 527 0
DWIDTH 6 0
BBX 7 12 0 -1
BITMAP
0E00
1540
1E00
2E00
6240
3580
01C0
2FC0
A1D0
91D0
7DA4
0074
ENDCHAR
STARTCHAR ae
ENCODING 230
SWIDTH 700 0
DWIDTH 8 0
BBX 9 8 0 -1
BITMAP
006D00
384700
5A0A00
67F800
2F0100
A34140
96D200
78BD00
ENDCHAR
STARTCHAR ccedilla
ENCODING 231
SWIDTH 437 0
DWIDTH 5 0
BBX 5 11 0 -3
BITMAP
1F40
6380
9000
9040
9040
7480
2F40
0400
0700
1240
0E00
ENDCHAR
STARTCHAR egrave
ENCODING 232
SWIDTH 434 0
DWIDTH 5 0
BBX 5 10 0 0
BITMAP
2000
1800
0000
1F40
75C0
A1C0
BE40
A040
7480
2F40
ENDCHAR
STARTCHAR eacute
ENCODING 233
SWIDTH 434 0
DWIDTH 5 0
BBX 5 10 0 0
BITMAP
0200
0500
0000
1F40
75C0
A1C0
BE40
A040
7480
2F40
ENDCHAR
STARTCHAR ecircumflex
ENCODING 234
SWIDTH 434 0
DWIDTH 5 0
BBX 5 10 0 0
BITMAP
0A00
12C0
0000
1F40
75C0
A1C0
BE40
A040
7480
2F40
ENDCHAR
STARTCHAR edieresis
ENCODING 235
SWIDTH 434 0
DWIDTH 5 0
BBX 5 9 0 0
BITMAP
1A00
0000
1F40
75C0
A1C0
BE40
A040
7480
2F40
ENDCHAR
STARTCHAR igrave
ENCODING 236
SWIDTH 301 0
DWIDTH 4 0
BBX 5 9 -1 1
BITMAP
6000
1400
0000
2E00
0E00
0900
0900
0D00
2F40
ENDCHAR
STARTCHAR iacute
ENCODING 237
SWIDTH 301 0
DWIDTH 4 0
BBX 4 9 0 1
BITMAP
08
14
00
B8
38
24
24
34
BD
ENDCHAR
STARTCHAR icircumflex
ENCODING 238
SWIDTH 301 0
DWIDTH 4 0
BBX 4 9 0 1
BITMAP
28
4B
00
B8
38
24
24
34
BD
ENDCHAR
STARTCHAR idieresis
ENCODING 239
SWIDTH 301 0
DWIDTH 4 0
BBX 4 8 0 1
BITMAP
69
00
B8
38
24
24
34
BD
ENDCHAR
STARTCHAR eth
ENCODING 240
SWIDTH 476 0
DWIDTH 6 0
BBX 7 10 -1 -1
BITMAP
0040
2F40
9190
0030
0034
0BF4
1C34
1C14
0D24
07E0
ENDCHAR
STARTCHAR ntilde
ENCODING 241
SWIDTH 584 0
DWIDTH 7 0
BBX 7 11 0 -1
BITMAP
0380
04B4
0000
1000
75E0
2934
1824
1824
0C34
3EF4
0014
ENDCHAR
STARTCHAR ograve
ENCODING 242
SWIDTH 400 0
DWIDTH 5 0
BBX 8 9 0 2
BITMAP
0006
6003
1402
0005
0018
6790
A240
9380
7E00
ENDCHAR
STARTCHAR oacute
ENCODING 243
SWIDTH 400 0
DWIDTH 5 0
BBX 8 9 0 2
BITMAP
0006
0003
0202
0505
0018
6790
A240
9380
7E00
ENDCHAR
STARTCHAR ocircumflex
ENCODING 244
SWIDTH 400 0
DWIDTH 5 0
BBX 8 9 0 2
BITMAP
0006
0003
0A02
12C5
0018
6790
A240
9380
7E00
ENDCHAR
STARTCHAR otilde
ENCODING 245
SWIDTH 400 0
DWIDTH 5 0
BBX 8 9 0 2
BITMAP
0006
0003
1D02
17C5
0018
6790
A240
9380
7E00
ENDCHAR
STARTCHAR odieresis
ENCODING 246
SWIDTH 400 0
DWIDTH 5 0
BBX 8 9 0 2
BITMAP
0006
0003
1A02
0005
0018
6790
A240
9380
7E00
ENDCHAR
STARTCHAR divide
ENCODING 247
SWIDTH 592 0
DWIDTH 7 0
BBX 7 5 0 1
BITMAP
0600
0000
7FF4
0000
0600
ENDCHAR
STARTCHAR oslash
ENCODING 248
SWIDTH 396 0
DWIDTH 5 0
BBX 5 7 0 0
BITMAP
0400
6E00
9B40
A740
7E00
1000
1000
ENDCHAR
STARTCHAR ugrave
ENCODING 249
SWIDTH 744 0
DWIDTH 9 0
BBX 9 9 0 0
BITMAP
060000
014000
000000
18BC00
B80C00
1C0C00
0D1D00
0E2BC0
07D000
ENDCHAR
STARTCHAR uacute
ENCODING 250
SWIDTH 744 0
DWIDTH 9 0
BBX 9 9 0 0
BITMAP
009000
004000
000000
18BC00
B80C00
1C0C00
0D1D00
0E2BC0
07D000
ENDCHAR
STARTCHAR ucircumflex
ENCODING 251
SWIDTH 744 0
DWIDTH 9 0
BBX 9 9 0 0
BITMAP
028000
04B000
000000
18BC00
B80C00
1C0C00
0D1D00
0E2BC0
07D000
ENDCHAR
STARTCHAR udieresis
ENCODING 252
SWIDTH 744 0
DWIDTH 9 0
BBX 9 9 0 0
BITMAP
036000
000000
000000
18BC00
B80C00
1C0C00
0D1D00
0E2BC0
07D000
ENDCHAR
STARTCHAR yacute
ENCODING 253
SWIDTH 659 0
DWIDTH 8 0
BBX 8 14 0 -5
BITMAP
0020
0040
1A00
B8BE
342D
281C
281C
1D2C
0798
0014
0024
1E20
1090
1F40
ENDCHAR
STARTCHAR thorn
ENCODING 254
SWIDTH 514 0
DWIDTH 6 0
BBX 7 18 -1 -8
BITMAP
0500
B800
1800
1800
1800
1FE0
0C74
0C28
0C2C
0D38
0EF4
0D00
0D00
0D00
0D00
0D00
1E00
3FC0
ENDCHAR
STARTCHAR ydieresis
ENCODING 255
SWIDTH 659 0
DWIDTH 8 0
BBX 8 14 0 -5
BITMAP
0270
0000
1A00
B8BE
342D
281C
281C
1D2C
0798
0014
0024
1E20
1090
1F40
ENDCHAR
STARTCHAR dotlessi
ENCODING 305
SWIDTH 301 0
DWIDTH 4 0
BBX 4 6 0 1
BITMAP
B8
38
24
24
34
BD
ENDCHAR
STARTCHAR OE
ENCODING 338
SWIDTH 1132 0
DWIDTH 14 0
BBX 14 12 0 -2
BITMAP
00000600
0BE6FF00
291EC040
B003C000
A002C000
E001D500
B001FA00
7802D100
2E06D010
0BF5E050
0002FFE0
00054000
ENDCHAR
STARTCHAR oe
ENCODING 339
SWIDTH 798 0
DWIDTH 10 0
BBX 10 5 0 1
BITMAP
2E5B40
A2F580
90FF50
B4B450
2F6F80
ENDCHAR
STARTCHAR circumflex
ENCODING 710
SWIDTH 483 0
DWIDTH 6 0
BBX 4 2 1 8
BITMAP
29
57
ENDCHAR
STARTCHAR caron
ENCODING 711
SWIDTH 428 0
DWIDTH 5 0
BBX 3 3 1 8
BITMAP
44
A4
20
ENDCHAR
STARTCHAR ring
ENCODING 730
SWIDTH 330 0
DWIDTH 4 0
BBX 4 3 0 10
BITMAP
3C
55
3C
ENDCHAR
STARTCHAR tilde
ENCODING 732
SWIDTH 433 0
DWIDTH 5 0
BBX 5 2 0 9
BITMAP
3800
4B40
ENDCHAR
STARTCHAR mu.dup1
ENCODING 956
SWIDTH 634 0
DWIDTH 8 0
BBX 8 10 0 -4
BITMAP
6000
6090
60A0
7061
74B1
6B7D
6000
7000
7000
7400
ENDCHAR
STARTCHAR endash
ENCODING 8211
SWIDTH 436 0
DWIDTH 5 0
BBX 5 1 0 2
BITMAP
6F40
ENDCHAR
STARTCHAR emdash
ENCODING 8212
SWIDTH 651 0
DWIDTH 8 0
BBX 6 2 1 2
BITMAP
1AF0
5400
ENDCHAR
STARTCHAR quoteleft
ENCODING 8216
SWIDTH 287 0
DWIDTH 3 0
BBX 3 4 0 6
BITMAP
14
30
74
74
ENDCHAR
STARTCHAR quoteright
ENCODING 8217
SWIDTH 291 0
DWIDTH 4 0
BBX 3 4 0 6
BITMAP
74
7C
08
14
ENDCHAR
STARTCHAR quotesinglbase
ENCODING 8218
SWIDTH 272 0
DWIDTH 3 0
BBX 3 4 0 -2
BITMAP
74
38
14
10
ENDCHAR
STARTCHAR quotedblleft
ENCODING 8220
SWIDTH 445 0
DWIDTH 5 0
BBX 5 4 0 6
BITMAP
0500
2340
7680
7400
ENDCHAR
STARTCHAR quotedblright
ENCODING 8221
SWIDTH 444 0
DWIDTH 5 0
BBX 5 4 0 6
BITMAP
7780
3B80
1540
1500
ENDCHAR
STARTCHAR quotedblbase
ENCODING 8222
SWIDTH 482 0
DWIDTH 6 0
BBX 5 4 0 -3
BITMAP
7AC0
79C0
1880
1500
ENDCHAR
STARTCHAR bullet
ENCODING 8226
SWIDTH 351 0
DWIDTH 4 0
BBX 4 3 0 3
BITMAP
2D
7E
3D
ENDCHAR
STARTCHAR guilsinglleft
ENCODING 8249
SWIDTH 465 0
DWIDTH 6 0
BBX 4 7 1 -1
BITMAP
04
14
60
F0
28
09
01
ENDCHAR
STARTCHAR guilsinglright
ENCODING 8250
SWIDTH 449 0
DWIDTH 5 0
BBX 5 7 0 -1
BITMAP
2000
1800
0B40
0A00
1800
2000
5000
ENDCHAR
STARTCHAR fraction
ENCODING 8260
SWIDTH 406 0
DWIDTH 5 0
BBX 8 11 -2 0
BITMAP
0001
0001
0008
0020
0050
0080
0200
0500
1400
2000
4000
ENDCHAR
STARTCHAR foursuperior
ENCODING 8308
SWIDTH 473 0
DWIDTH 6 0
BBX 6 7 0 4
BITMAP
0400
0D00
1900
0940
7F80
0700
1FD0
ENDCHAR
STARTCHAR Euro
ENCODING 8364
SWIDTH 799 0
DWIDTH 10 0
BBX 10 10 0 -1
BITMAP
00BE60
0391D0
0B0080
1E1040
2E5000
6E4000
AD0040
0E0100
0B4200
01F800
ENDCHAR
STARTCHAR minus
ENCODING 8722
SWIDTH 436 0
DWIDTH 5 0
BBX 5 1 0 2
BITMAP
6F40
ENDCHAR
STARTCHAR f_f
ENCODING 64256
SWIDTH 467 0
DWIDTH 6 0
BBX 7 18 0 -4
BITMAP
0780
0680
10B8
225C
2238
2200
2600
7F90
3300
3300
2640
2580
29C0
29F4
1E40
1C00
2E00
BF80
ENDCHAR
STARTCHAR .notdef
ENCODING -1
SWIDTH 270 0
DWIDTH 3 0
BBX 3 7 0 0
BITMAP
B8
00
00
00
00
00
B8
ENDCHAR
STARTCHAR .null
ENCODING -1
SWIDTH 0 0
DWIDTH 0 0
BBX 1 1 0 0
BITMAP
00
ENDCHAR
STARTCHAR nonmarkingreturn
ENCODING -1
SWIDTH 270 0
DWIDTH 3 0
BBX 1 1 0 0
BITMAP
00
ENDCHAR
STARTCHAR dieresis.case
ENCODING -1
SWIDTH 393 0
DWIDTH 5 0
BBX 4 2 0 9
BITMAP
70
77
ENDCHAR
STARTCHAR o.cmp
ENCODING -1
SWIDTH 400 0
DWIDTH 5 0
BBX 8 9 0 2
BITMAP
0006
0003
0002
0005
0018
6790
A240
9380
7E00
ENDCHAR
STARTCHAR n_n
ENCODING -1
SWIDTH 1024 0
DWIDTH 12 0
BBX 12 8 0 -1
BITMAP
200000
B5E780
2936AD
18268B
18268A
0C37FF
3EF401
000800
ENDCHAR
STARTCHAR a_a
ENCODING -1
SWIDTH 911 0
DWIDTH 11 0
BBX 12 8 0 0
BITMAP
000B80
002890
2D2860
962FA0
626CA0
6F64A0
A36EB1
79F02C
ENDCHAR
STARTCHAR t_h
ENCODING -1
SWIDTH 854 0
DWIDTH 10 0
BBX 11 16 0 -3
BITMAP
006000
07E000
006000
016000
196000
BFF400
1C6000
18AB80
18A0A0
1C9670
0ED670
06F860
01E0A0
07F9D0
0007E0
000024
ENDCHAR
STARTCHAR s_s
ENCODING -1
SWIDTH 654 0
DWIDTH 8 0
BBX 8 11 0 -2
BITMAP
0001
0FBD
19D5
0890
0660
41A8
8ADC
59CE
1F4E
051D
02F4
ENDCHAR
STARTCHAR t_t
ENCODING -1
SWIDTH 569 0
DWIDTH 7 0
BBX 7 10 0 -1
BITMAP
0690
1BD0
FF40
3700
3700
3668
3688
28B4
1D70
07E0
ENDCHAR
STARTCHAR e_e
ENCODING -1
SWIDTH 782 0
DWIDTH 9 0
BBX 9 7 0 0
BITMAP
2E2E00
A2A240
D6D140
F8D200
747940
1BF840
001F80
ENDCHAR
STARTCHAR o_o
ENCODING -1
SWIDTH 751 0
DWIDTH 9 0
BBX 13 10 0 1
BITMAP
00000700
00000240
00000100
00000200
1F401800
74A7E000
A0D14000
90D28000
A1FE4000
2F400000
ENDCHAR
STARTCHAR l_l
ENCODING -1
SWIDTH 573 0
DWIDTH 7 0
BBX 8 12 -1 -2
BITMAP
19F4
6C34
0C34
0C34
0D34
0D34
0D38
0D38
0D2C
1D7F
BD00
0640
ENDCHAR
STARTCHAR z_z
ENCODING -1
SWIDTH 875 0
DWIDTH 11 0
BBX 11 8 0 -1
BITMAP
03FC00
001800
7FA400
077000
0D9100
29FF34
600024
FFFFE0
ENDCHAR
STARTCHAR j_j
ENCODING -1
SWIDTH 577 0
DWIDTH 7 0
BBX 9 17 -2 -8
BITMAP
001C00
002800
00C400
003E00
07EB00
00F740
007340
007240
003280
003180
003180
2C3180
646180
609140
2F9140
00B200
007800
ENDCHAR
STARTCHAR f_b
ENCODING -1
SWIDTH 731 0
DWIDTH 9 0
BBX 10 16 -1 -2
BITMAP
01F400
021800
057800
056400
097800
1E6800
6D1800
091800
091800
091FD0
0918A0
0A18A0
0A2FD0
0A1000
0FC000
140000
ENDCHAR
STARTCHAR f_k
ENCODING -1
SWIDTH 708 0
DWIDTH 9 0
BBX 9 13 0 -1
BITMAP
060000
2FE000
077000
17B000
230000
731000
231D00
336000
33D000
33A100
337440
B75F00
1FF000
ENDCHAR
STARTCHAR f_h
ENCODING -1
SWIDTH 873 0
DWIDTH 10 0
BBX 12 16 -1 -2
BITMAP
01F400
021800
017800
056900
097D00
0B8C00
6E0C00
5D0C00
090C00
090DF4
090D34
091C28
0A287D
0ABD00
0FC000
140000
ENDCHAR
ENDFONT
